<?xml version="1.0" encoding="utf-8"?>
<!-- Generator: Adobe Illustrator 19.0.0, SVG Export Plug-In . SVG Version: 6.00 Build 0)  -->
<svg version="1.1" id="Layer_1" xmlns="http://www.w3.org/2000/svg" xmlns:xlink="http://www.w3.org/1999/xlink" x="0px" y="0px"
	 viewBox="0 0 72 72" style="enable-background:new 0 0 72 72;" xml:space="preserve">
<style type="text/css">
	.st0{fill:none;stroke:#000000;stroke-width:3;stroke-miterlimit:10;}
	.st1{fill:none;}
</style>
<path id="XMLID_1_" class="st0" d="M52.8,70.3H19.2c-9.6,0-17.5-7.9-17.5-17.5V19.2c0-9.6,7.9-17.5,17.5-17.5h33.6
	c9.6,0,17.5,7.9,17.5,17.5v33.6C70.3,62.4,62.4,70.3,52.8,70.3z"/>
<g id="XMLID_3_">
	<rect id="XMLID_11_" x="16" y="8.2" class="st1" width="39.9" height="55.6"/>
	<path id="XMLID_6_" d="M40.5,22.3L36,11.8l0,0l-4.5,10.5h-1.9l5.6-12.4h1.7l5.6,12.4H40.5z"/>
	<path id="XMLID_8_" d="M40.3,43.9c-0.5,0-1.1,0-1.8,0.1c-3.7,0.6-5.7,3.3-6.1,6.2h0.1c0.8-1.1,2.3-2,4.2-2c3.1,0,5.3,2.2,5.3,5.7
		c0,3.2-2.2,6.2-5.8,6.2c-3.8,0-6.2-2.9-6.2-7.5c0-3.5,1.2-6.2,3-7.9c1.5-1.4,3.4-2.3,5.6-2.6c0.7-0.1,1.3-0.1,1.7-0.1V43.9z
		 M39.6,54c0-2.5-1.4-4-3.6-4c-1.4,0-2.8,0.9-3.4,2.2c-0.2,0.3-0.3,0.6-0.3,1.1c0.1,2.9,1.4,5,3.9,5C38.3,58.2,39.6,56.5,39.6,54z"
		/>
</g>
<g id="XMLID_4_">
</g>
<g id="XMLID_2_">
</g>
<g id="XMLID_5_">
</g>
<g id="XMLID_12_">
</g>
<g id="XMLID_13_">
</g>
<g id="XMLID_14_">
</g>
<g id="XMLID_15_">
</g>
</svg>
