<?xml version="1.0" encoding="utf-8"?>
<!-- Generator: Adobe Illustrator 19.0.0, SVG Export Plug-In . SVG Version: 6.00 Build 0)  -->
<svg version="1.1" id="Layer_1" xmlns="http://www.w3.org/2000/svg" xmlns:xlink="http://www.w3.org/1999/xlink" x="0px" y="0px"
	 viewBox="0 0 72 72" style="enable-background:new 0 0 72 72;" xml:space="preserve">
<style type="text/css">
	.st0{fill:none;stroke:#000000;stroke-width:3;stroke-miterlimit:10;}
	.st1{fill:none;}
</style>
<path id="XMLID_1_" class="st0" d="M52.8,70.3H19.2c-9.6,0-17.5-7.9-17.5-17.5V19.2c0-9.6,7.9-17.5,17.5-17.5h33.6
	c9.6,0,17.5,7.9,17.5,17.5v33.6C70.3,62.4,62.4,70.3,52.8,70.3z"/>
<g id="XMLID_3_">
	<rect id="XMLID_9_" x="16" y="8.2" class="st1" width="39.9" height="55.6"/>
	<path id="XMLID_5_" d="M32.9,18.9c1.9,0,2.2-1.1,2.2-2c0-0.8-0.1-1.5-0.2-2.3c-0.1-0.8-0.2-1.5-0.2-2.2c0-2.5,1.6-3.5,3.9-3.5h0.6
		v1.5h-0.5c-1.6,0-2.1,0.9-2.1,2.3c0,0.6,0.1,1.3,0.2,1.9c0.1,0.7,0.2,1.3,0.2,2.1c0,1.7-0.7,2.6-1.9,2.9v0.1c1.2,0.3,2,1.2,1.9,2.9
		c0,0.7-0.1,1.4-0.2,2.1c-0.1,0.7-0.2,1.3-0.2,1.9c0,1.5,0.6,2.3,2.1,2.3h0.5v1.5h-0.6c-2.2,0-3.9-1-3.9-3.7c0-0.7,0.1-1.5,0.2-2.2
		c0.1-0.7,0.2-1.5,0.2-2.2c0-0.8-0.3-2-2.2-2V18.9z"/>
	<path id="XMLID_7_" d="M34.4,62.8V41.3h4.9v1.5h-3.1v18.5h3.1v1.5H34.4z"/>
</g>
<g id="XMLID_2_">
</g>
<g id="XMLID_4_">
</g>
<g id="XMLID_10_">
</g>
<g id="XMLID_11_">
</g>
<g id="XMLID_12_">
</g>
<g id="XMLID_13_">
</g>
</svg>
