<?xml version="1.0" encoding="utf-8"?>
<!-- Generator: Adobe Illustrator 19.0.0, SVG Export Plug-In . SVG Version: 6.00 Build 0)  -->
<svg version="1.1" id="Layer_1" xmlns="http://www.w3.org/2000/svg" xmlns:xlink="http://www.w3.org/1999/xlink" x="0px" y="0px"
	 viewBox="0 0 72 72" style="enable-background:new 0 0 72 72;" xml:space="preserve">
<style type="text/css">
	.st0{fill:none;stroke:#000000;stroke-width:3;stroke-miterlimit:10;}
	.st1{fill:none;}
</style>
<path id="XMLID_1_" class="st0" d="M52.8,70.3H19.2c-9.6,0-17.5-7.9-17.5-17.5V19.2c0-9.6,7.9-17.5,17.5-17.5h33.6
	c9.6,0,17.5,7.9,17.5,17.5v33.6C70.3,62.4,62.4,70.3,52.8,70.3z"/>
<g id="XMLID_2_">
	<rect id="XMLID_8_" x="1.7" y="8.1" class="st1" width="68.6" height="54.3"/>
	<path id="XMLID_6_" d="M20.7,21.4l3.8,14.5c0.8,3.2,1.6,6.1,2.1,9.1h0.2c0.6-2.9,1.6-5.9,2.5-9l4.7-14.5h4.4l4.4,14.2
		c1.1,3.4,1.9,6.4,2.5,9.3h0.2c0.5-2.9,1.2-5.9,2.2-9.2l4.1-14.3h5.1l-9.2,28.5h-4.7l-4.4-13.6c-1-3.2-1.8-6-2.5-9.4h-0.1
		c-0.7,3.4-1.6,6.4-2.6,9.4l-4.6,13.5H24l-8.6-28.5H20.7z"/>
</g>
<g id="XMLID_4_">
</g>
<g id="XMLID_3_">
</g>
<g id="XMLID_5_">
</g>
<g id="XMLID_9_">
</g>
<g id="XMLID_10_">
</g>
<g id="XMLID_11_">
</g>
<g id="XMLID_12_">
</g>
</svg>
