<?xml version="1.0" encoding="utf-8"?>
<!-- Generator: Adobe Illustrator 19.0.0, SVG Export Plug-In . SVG Version: 6.00 Build 0)  -->
<svg version="1.1" id="Layer_1" xmlns="http://www.w3.org/2000/svg" xmlns:xlink="http://www.w3.org/1999/xlink" x="0px" y="0px"
	 viewBox="0 0 72 72" style="enable-background:new 0 0 72 72;" xml:space="preserve">
<style type="text/css">
	.st0{fill:none;stroke:#000000;stroke-width:3;stroke-miterlimit:10;}
	.st1{fill:none;}
</style>
<path id="XMLID_1_" class="st0" d="M52.8,70.3H19.2c-9.6,0-17.5-7.9-17.5-17.5V19.2c0-9.6,7.9-17.5,17.5-17.5h33.6
	c9.6,0,17.5,7.9,17.5,17.5v33.6C70.3,62.4,62.4,70.3,52.8,70.3z"/>
<g id="XMLID_2_">
	<rect id="XMLID_8_" x="1.7" y="8.1" class="st1" width="68.6" height="54.3"/>
	<path id="XMLID_5_" d="M26.2,58.2c2.4-0.2,4.4-0.8,5.7-2.2c1.4-1.6,1.9-3.9,1.9-10.7V21.4H39v25.8c0,5.5-0.9,9.1-3.4,11.7
		c-2.3,2.3-6.1,3.2-8.8,3.2L26.2,58.2z M39.6,13.4c0.1,1.7-1.2,3.2-3.2,3.2c-1.9,0-3.2-1.5-3.2-3.2c0-1.8,1.4-3.2,3.3-3.2
		C38.3,10.2,39.6,11.6,39.6,13.4z"/>
</g>
<g id="XMLID_3_">
</g>
<g id="XMLID_4_">
</g>
<g id="XMLID_9_">
</g>
<g id="XMLID_10_">
</g>
<g id="XMLID_11_">
</g>
<g id="XMLID_12_">
</g>
</svg>
