<?xml version="1.0" encoding="utf-8"?>
<!-- Generator: Adobe Illustrator 19.0.0, SVG Export Plug-In . SVG Version: 6.00 Build 0)  -->
<svg version="1.1" id="Layer_1" xmlns="http://www.w3.org/2000/svg" xmlns:xlink="http://www.w3.org/1999/xlink" x="0px" y="0px"
	 viewBox="0 0 72 72" style="enable-background:new 0 0 72 72;" xml:space="preserve">
<style type="text/css">
	.st0{fill:none;stroke:#000000;stroke-width:3;stroke-miterlimit:10;}
	.st1{fill:none;}
</style>
<path id="XMLID_1_" class="st0" d="M52.8,70.3H19.2c-9.6,0-17.5-7.9-17.5-17.5V19.2c0-9.6,7.9-17.5,17.5-17.5h33.6
	c9.6,0,17.5,7.9,17.5,17.5v33.6C70.3,62.4,62.4,70.3,52.8,70.3z"/>
<g id="XMLID_2_">
	<rect id="XMLID_9_" x="1.7" y="4.1" class="st1" width="68.6" height="54.3"/>
	<path id="XMLID_6_" d="M48.4,17.4c-0.1,2.1-0.2,4.4-0.2,7.8v16.5c0,6.5-1.3,10.5-4.1,13c-2.8,2.6-6.8,3.4-10.4,3.4
		c-3.4,0-7.2-0.8-9.5-2.4l1.3-3.9c1.9,1.2,4.8,2.2,8.4,2.2c5.3,0,9.2-2.8,9.2-10V41H43c-1.6,2.7-4.7,4.8-9.1,4.8
		c-7.1,0-12.1-6-12.1-13.9c0-9.7,6.3-15.1,12.8-15.1c4.9,0,7.7,2.6,8.9,4.9h0.1l0.2-4.3H48.4z M43,28.7c0-0.9-0.1-1.6-0.3-2.4
		c-0.9-3-3.5-5.5-7.2-5.5c-4.9,0-8.5,4.2-8.5,10.8c0,5.6,2.8,10.2,8.4,10.2c3.2,0,6.1-2,7.2-5.3c0.3-0.9,0.4-1.9,0.4-2.8V28.7z"/>
</g>
<g id="XMLID_4_">
</g>
<g id="XMLID_3_">
</g>
<g id="XMLID_5_">
</g>
<g id="XMLID_10_">
</g>
<g id="XMLID_11_">
</g>
<g id="XMLID_12_">
</g>
<g id="XMLID_13_">
</g>
</svg>
