<?xml version="1.0" encoding="utf-8"?>
<!-- Generator: Adobe Illustrator 19.0.0, SVG Export Plug-In . SVG Version: 6.00 Build 0)  -->
<svg version="1.1" id="Layer_1" xmlns="http://www.w3.org/2000/svg" xmlns:xlink="http://www.w3.org/1999/xlink" x="0px" y="0px"
	 viewBox="17 0 105.5 72" style="enable-background:new 17 0 105.5 72;" xml:space="preserve">
<style type="text/css">
	.st0{fill:none;stroke:#000000;stroke-width:3;stroke-miterlimit:10;}
	.st1{fill:none;}
</style>
<path id="XMLID_1_" class="st0" d="M103.3,70.3H36.2c-9.6,0-17.5-7.9-17.5-17.5V19.2c0-9.6,7.9-17.5,17.5-17.5h67.1
	c9.6,0,17.5,7.9,17.5,17.5v33.6C120.8,62.4,112.9,70.3,103.3,70.3z"/>
<g id="XMLID_4_">
</g>
<g id="XMLID_5_">
</g>
<g id="XMLID_18_">
	<rect id="XMLID_28_" x="17" y="17.8" class="st1" width="105.5" height="31.2"/>
	<path id="XMLID_20_" d="M58.8,46.9c-1,0.5-3.1,1.2-5.8,1.2c-6.1,0-10.1-4.2-10.1-10.4c0-6.3,4.3-10.8,10.9-10.8
		c2.2,0,4.1,0.5,5.1,1L58,30.8c-0.9-0.5-2.3-1-4.3-1c-4.7,0-7.2,3.4-7.2,7.7c0,4.7,3,7.6,7.1,7.6c2.1,0,3.5-0.5,4.5-1L58.8,46.9z"/>
	<path id="XMLID_22_" d="M68.1,21.5v5.8h5.3v2.8h-5.3v11c0,2.5,0.7,3.9,2.8,3.9c1,0,1.7-0.1,2.1-0.3l0.2,2.8
		c-0.7,0.3-1.8,0.5-3.3,0.5c-1.7,0-3.1-0.5-4-1.6c-1-1.1-1.4-2.9-1.4-5.3v-11h-3.2v-2.8h3.2v-4.9L68.1,21.5z"/>
	<path id="XMLID_24_" d="M77.5,33.7c0-2.4,0-4.5-0.2-6.3h3.2l0.1,4h0.2c0.9-2.7,3.2-4.5,5.6-4.5c0.4,0,0.7,0,1.1,0.1v3.5
		c-0.4-0.1-0.8-0.1-1.3-0.1c-2.6,0-4.5,2-5,4.7c-0.1,0.5-0.2,1.1-0.2,1.7v10.8h-3.7V33.7H77.5z"/>
	<path id="XMLID_26_" d="M91.4,17.8h3.7v29.8h-3.7V17.8z"/>
</g>
<g id="XMLID_17_">
</g>
<g id="XMLID_19_">
</g>
<g id="XMLID_29_">
</g>
<g id="XMLID_30_">
</g>
<g id="XMLID_31_">
</g>
<g id="XMLID_32_">
</g>
</svg>
