<?xml version="1.0" encoding="utf-8"?>
<!-- Generator: Adobe Illustrator 19.0.0, SVG Export Plug-In . SVG Version: 6.00 Build 0)  -->
<svg version="1.1" id="Layer_1" xmlns="http://www.w3.org/2000/svg" xmlns:xlink="http://www.w3.org/1999/xlink" x="0px" y="0px"
	 viewBox="0 0 72 72" style="enable-background:new 0 0 72 72;" xml:space="preserve">
<style type="text/css">
	.st0{fill:none;stroke:#000000;stroke-width:3;stroke-miterlimit:10;}
	.st1{fill:none;}
</style>
<path id="XMLID_1_" class="st0" d="M52.8,70.3H19.2c-9.6,0-17.5-7.9-17.5-17.5V19.2c0-9.6,7.9-17.5,17.5-17.5h33.6
	c9.6,0,17.5,7.9,17.5,17.5v33.6C70.3,62.4,62.4,70.3,52.8,70.3z"/>
<g id="XMLID_3_">
	<rect id="XMLID_9_" x="16" y="8.2" class="st1" width="39.9" height="55.6"/>
	<path id="XMLID_5_" d="M39.1,20.3c-1.9,0-2.2,1.2-2.2,2c0,0.7,0.1,1.5,0.2,2.2c0.1,0.7,0.2,1.5,0.2,2.2c0,2.7-1.7,3.7-3.9,3.7h-0.6
		v-1.5h0.5c1.5,0,2.2-0.8,2.2-2.3c0-0.6-0.1-1.3-0.2-1.9c-0.1-0.6-0.2-1.3-0.2-2.1c0-1.7,0.8-2.6,1.9-2.9v-0.1
		c-1.2-0.3-1.9-1.2-1.9-2.9c0-0.7,0.1-1.4,0.2-2.1c0.1-0.6,0.2-1.3,0.2-1.9c0-1.5-0.6-2.3-2.1-2.3h-0.5V8.9h0.5
		c2.3,0,3.9,1.1,3.9,3.5c0,0.8-0.1,1.5-0.2,2.2c-0.1,0.8-0.2,1.5-0.2,2.3c0,0.9,0.3,2,2.2,2C39.1,18.9,39.1,20.3,39.1,20.3z"/>
	<path id="XMLID_7_" d="M37.6,41.2v21.5h-4.9v-1.5h3.1V42.7h-3.1v-1.5H37.6z"/>
</g>
<g id="XMLID_2_">
</g>
<g id="XMLID_4_">
</g>
<g id="XMLID_10_">
</g>
<g id="XMLID_11_">
</g>
<g id="XMLID_12_">
</g>
<g id="XMLID_13_">
</g>
</svg>
