<?xml version="1.0" encoding="utf-8"?>
<!-- Generator: Adobe Illustrator 19.0.0, SVG Export Plug-In . SVG Version: 6.00 Build 0)  -->
<svg version="1.1" id="Layer_1" xmlns="http://www.w3.org/2000/svg" xmlns:xlink="http://www.w3.org/1999/xlink" x="0px" y="0px"
	 viewBox="0 0 72 72" style="enable-background:new 0 0 72 72;" xml:space="preserve">
<style type="text/css">
	.st0{fill:none;stroke:#000000;stroke-width:3;stroke-miterlimit:10;}
	.st1{fill:none;}
</style>
<path id="XMLID_1_" class="st0" d="M52.8,70.3H19.2c-9.6,0-17.5-7.9-17.5-17.5V19.2c0-9.6,7.9-17.5,17.5-17.5h33.6
	c9.6,0,17.5,7.9,17.5,17.5v33.6C70.3,62.4,62.4,70.3,52.8,70.3z"/>
<g id="XMLID_3_">
	<rect id="XMLID_11_" x="16" y="8.2" class="st1" width="39.9" height="55.6"/>
	<path id="XMLID_6_" d="M32.7,30.6c1.9-2.7,3.4-6.2,3.4-11s-1.5-8.3-3.4-11h1.8c1.7,2.2,3.5,5.7,3.5,11s-1.8,8.7-3.5,11H32.7z"/>
	<path id="XMLID_8_" d="M42,50.8c0,6-2.2,9.3-6.1,9.3c-3.4,0-5.7-3.2-5.8-9c0-5.9,2.5-9.1,6.1-9.1C39.8,41.9,42,45.2,42,50.8z
		 M32.4,51.1c0,4.6,1.4,7.2,3.6,7.2c2.4,0,3.6-2.8,3.6-7.3c0-4.3-1.1-7.2-3.6-7.2C33.9,43.8,32.4,46.3,32.4,51.1z"/>
</g>
<g id="XMLID_4_">
</g>
<g id="XMLID_2_">
</g>
<g id="XMLID_5_">
</g>
<g id="XMLID_12_">
</g>
<g id="XMLID_13_">
</g>
<g id="XMLID_14_">
</g>
<g id="XMLID_15_">
</g>
</svg>
