<?xml version="1.0" encoding="utf-8"?>
<!-- Generator: Adobe Illustrator 19.0.0, SVG Export Plug-In . SVG Version: 6.00 Build 0)  -->
<svg version="1.1" id="Layer_1" xmlns="http://www.w3.org/2000/svg" xmlns:xlink="http://www.w3.org/1999/xlink" x="0px" y="0px"
	 viewBox="0 0 72 72" style="enable-background:new 0 0 72 72;" xml:space="preserve">
<style type="text/css">
	.st0{fill:none;stroke:#000000;stroke-width:3;stroke-miterlimit:10;}
	.st1{fill:none;}
</style>
<path id="XMLID_1_" class="st0" d="M52.8,70.3H19.2c-9.6,0-17.5-7.9-17.5-17.5V19.2c0-9.6,7.9-17.5,17.5-17.5h33.6
	c9.6,0,17.5,7.9,17.5,17.5v33.6C70.3,62.4,62.4,70.3,52.8,70.3z"/>
<g id="XMLID_2_">
	<rect id="XMLID_8_" x="1.7" y="8.1" class="st1" width="68.6" height="54.3"/>
	<path id="XMLID_5_" d="M41.9,49.9l-0.4-3.6h-0.2c-1.6,2.2-4.7,4.2-8.7,4.2c-5.8,0-8.7-4.1-8.7-8.2c0-6.9,6.1-10.7,17.1-10.6v-0.6
		c0-2.4-0.6-6.6-6.5-6.6c-2.6,0-5.4,0.8-7.4,2.1l-1.2-3.4c2.4-1.5,5.8-2.5,9.4-2.5c8.7,0,10.8,5.9,10.8,11.7v10.7
		c0,2.5,0.1,4.9,0.5,6.8H41.9z M41.1,35.4c-5.7-0.1-12.1,0.9-12.1,6.4c0,3.4,2.2,4.9,4.9,4.9c3.7,0,6.1-2.4,6.9-4.8
		c0.2-0.5,0.3-1.1,0.3-1.6V35.4z"/>
</g>
<g id="XMLID_3_">
</g>
<g id="XMLID_4_">
</g>
<g id="XMLID_9_">
</g>
<g id="XMLID_10_">
</g>
<g id="XMLID_11_">
</g>
<g id="XMLID_12_">
</g>
</svg>
