<?xml version="1.0" encoding="utf-8"?>
<!-- Generator: Adobe Illustrator 19.0.0, SVG Export Plug-In . SVG Version: 6.00 Build 0)  -->
<svg version="1.1" id="Layer_1" xmlns="http://www.w3.org/2000/svg" xmlns:xlink="http://www.w3.org/1999/xlink" x="0px" y="0px"
	 viewBox="0 0 72 72" style="enable-background:new 0 0 72 72;" xml:space="preserve">
<style type="text/css">
	.st0{fill:none;stroke:#000000;stroke-width:3;stroke-miterlimit:10;}
	.st1{fill:none;}
</style>
<path id="XMLID_1_" class="st0" d="M52.8,70.3H19.2c-9.6,0-17.5-7.9-17.5-17.5V19.2c0-9.6,7.9-17.5,17.5-17.5h33.6
	c9.6,0,17.5,7.9,17.5,17.5v33.6C70.3,62.4,62.4,70.3,52.8,70.3z"/>
<g id="XMLID_3_">
	<rect id="XMLID_9_" x="16" y="8.2" class="st1" width="39.9" height="55.6"/>
	<path id="XMLID_5_" d="M42.3,20.9l-12.5,6.4v-1.9l10.6-5.3V20l-10.6-5.3V13l12.5,6.4C42.3,19.4,42.3,20.9,42.3,20.9z"/>
	<path id="XMLID_7_" d="M34.6,58.4c0-1,0.7-1.7,1.6-1.7s1.6,0.7,1.6,1.7s-0.6,1.7-1.6,1.7C35.3,60.1,34.6,59.3,34.6,58.4z"/>
</g>
<g id="XMLID_2_">
</g>
<g id="XMLID_4_">
</g>
<g id="XMLID_10_">
</g>
<g id="XMLID_11_">
</g>
<g id="XMLID_12_">
</g>
<g id="XMLID_13_">
</g>
</svg>
