<?xml version="1.0" encoding="utf-8"?>
<!-- Generator: Adobe Illustrator 19.0.0, SVG Export Plug-In . SVG Version: 6.00 Build 0)  -->
<svg version="1.1" id="Layer_1" xmlns="http://www.w3.org/2000/svg" xmlns:xlink="http://www.w3.org/1999/xlink" x="0px" y="0px"
	 viewBox="31 0 133.2 72" style="enable-background:new 31 0 133.2 72;" xml:space="preserve">
<style type="text/css">
	.st0{fill:none;stroke:#000000;stroke-width:3;stroke-miterlimit:10;}
	.st1{fill:none;}
</style>
<path id="XMLID_1_" class="st0" d="M145,70.3H50.2c-9.6,0-17.5-7.9-17.5-17.5V19.2c0-9.6,7.9-17.5,17.5-17.5H145
	c9.6,0,17.5,7.9,17.5,17.5v33.6C162.5,62.4,154.6,70.3,145,70.3z"/>
<g id="XMLID_4_">
</g>
<g id="XMLID_5_">
</g>
<g id="XMLID_18_">
	<rect id="XMLID_47_" x="31" y="19.8" class="st1" width="133.2" height="31.2"/>
	<path id="XMLID_34_" d="M53.7,33.4c0-2.1,0-3.8-0.1-5.4h2.8l0.1,3.4h0.1c0.8-2.3,2.7-3.8,4.8-3.8c0.4,0,0.6,0,0.9,0.1v3
		c-0.3-0.1-0.6-0.1-1.1-0.1c-2.2,0-3.8,1.7-4.2,4.1c-0.1,0.4-0.1,0.9-0.1,1.5v9.3h-3.1L53.7,33.4L53.7,33.4z"/>
	<path id="XMLID_36_" d="M66.8,37.3c0.1,4.3,2.8,6,6,6c2.3,0,3.6-0.4,4.8-0.9l0.5,2.3c-1.1,0.5-3,1.1-5.8,1.1
		c-5.4,0-8.6-3.5-8.6-8.8s3.1-9.4,8.2-9.4c5.7,0,7.2,5,7.2,8.2c0,0.6-0.1,1.2-0.1,1.5C79,37.3,66.8,37.3,66.8,37.3z M76.1,35
		c0-2-0.8-5.1-4.4-5.1c-3.2,0-4.6,3-4.9,5.1H76.1z"/>
	<path id="XMLID_39_" d="M86.9,23v5h4.5v2.4h-4.5v9.4c0,2.2,0.6,3.4,2.4,3.4c0.8,0,1.4-0.1,1.8-0.2l0.1,2.4
		c-0.6,0.3-1.6,0.4-2.8,0.4c-1.5,0-2.7-0.5-3.4-1.3c-0.9-0.9-1.2-2.5-1.2-4.5v-9.5h-2.7V28h2.7v-4.2L86.9,23z"/>
	<path id="XMLID_41_" d="M109.6,40.7c0,1.8,0,3.4,0.1,4.8h-2.8l-0.2-2.8h-0.1c-0.8,1.4-2.7,3.2-5.8,3.2c-2.7,0-6-1.5-6-7.6V28H98
		v9.6c0,3.3,1,5.5,3.9,5.5c2.1,0,3.6-1.5,4.2-2.9c0.2-0.5,0.3-1,0.3-1.6V28h3.2C109.6,28,109.6,40.7,109.6,40.7z"/>
	<path id="XMLID_43_" d="M114.9,33.4c0-2.1,0-3.8-0.1-5.4h2.8l0.1,3.4h0.1c0.8-2.3,2.7-3.8,4.8-3.8c0.4,0,0.6,0,0.9,0.1v3
		c-0.3-0.1-0.6-0.1-1.1-0.1c-2.2,0-3.8,1.7-4.2,4.1c-0.1,0.4-0.1,0.9-0.1,1.5v9.3H115V33.4H114.9z"/>
	<path id="XMLID_45_" d="M126.8,32.7c0-1.8,0-3.3-0.1-4.7h2.8l0.2,2.9h0.1c0.9-1.7,2.9-3.3,5.8-3.3c2.4,0,6.2,1.4,6.2,7.4v10.4h-3.2
		v-10c0-2.8-1-5.1-4-5.1c-2.1,0-3.7,1.5-4.2,3.2c-0.1,0.4-0.2,0.9-0.2,1.5v10.5H127V32.7H126.8z"/>
</g>
<g id="XMLID_19_">
</g>
<g id="XMLID_17_">
</g>
<g id="XMLID_33_">
</g>
<g id="XMLID_48_">
</g>
<g id="XMLID_49_">
</g>
<g id="XMLID_50_">
</g>
<g id="XMLID_51_">
</g>
</svg>
