<?xml version="1.0" encoding="utf-8"?>
<!-- Generator: Adobe Illustrator 19.0.0, SVG Export Plug-In . SVG Version: 6.00 Build 0)  -->
<svg version="1.1" id="Layer_1" xmlns="http://www.w3.org/2000/svg" xmlns:xlink="http://www.w3.org/1999/xlink" x="0px" y="0px"
	 viewBox="0 0 72 72" style="enable-background:new 0 0 72 72;" xml:space="preserve">
<style type="text/css">
	.st0{fill:none;stroke:#000000;stroke-width:3;stroke-miterlimit:10;}
	.st1{fill:none;}
</style>
<path id="XMLID_1_" class="st0" d="M52.8,70.3H19.2c-9.6,0-17.5-7.9-17.5-17.5V19.2c0-9.6,7.9-17.5,17.5-17.5h33.6
	c9.6,0,17.5,7.9,17.5,17.5v33.6C70.3,62.4,62.4,70.3,52.8,70.3z"/>
<g id="XMLID_3_">
	<rect id="XMLID_11_" x="16" y="8.2" class="st1" width="39.9" height="55.6"/>
	<path id="XMLID_6_" d="M31.8,27.4l0.7-5.3h-2.2v-1.6h2.5l0.5-3.9H31V15h2.6l0.7-5.2h1.6L35.1,15h2.8l0.7-5.2h1.6L39.5,15h2.2v1.6
		h-2.5l-0.5,3.9H41v1.6h-2.6l-0.7,5.3h-1.6l0.7-5.3H34l-0.7,5.3C33.3,27.4,31.8,27.4,31.8,27.4z M37.2,20.5l0.5-3.9h-2.8l-0.5,3.9
		H37.2z"/>
	<path id="XMLID_9_" d="M30.9,57c0.7,0.4,2.2,1.1,3.9,1.1c3.1,0,4-1.9,4-3.4c0-2.5-2.2-3.5-4.5-3.5H33v-1.8h1.3c1.7,0,3.9-0.9,3.9-3
		c0-1.4-0.9-2.6-3.1-2.6c-1.4,0-2.8,0.6-3.5,1.2L31,43.3c0.9-0.7,2.7-1.3,4.6-1.3c3.5,0,5,2.1,5,4.2c0,1.8-1.1,3.3-3.2,4.1v0.1
		c2.2,0.4,3.9,2.1,3.9,4.5c0,2.8-2.2,5.3-6.4,5.3c-2,0-3.7-0.6-4.6-1.2L30.9,57z"/>
</g>
<g id="XMLID_4_">
</g>
<g id="XMLID_2_">
</g>
<g id="XMLID_5_">
</g>
<g id="XMLID_12_">
</g>
<g id="XMLID_13_">
</g>
<g id="XMLID_14_">
</g>
<g id="XMLID_15_">
</g>
</svg>
