<?xml version="1.0" encoding="utf-8"?>
<!-- Generator: Adobe Illustrator 19.0.0, SVG Export Plug-In . SVG Version: 6.00 Build 0)  -->
<svg version="1.1" id="Layer_1" xmlns="http://www.w3.org/2000/svg" xmlns:xlink="http://www.w3.org/1999/xlink" x="0px" y="0px"
	 viewBox="0 0 72 72" style="enable-background:new 0 0 72 72;" xml:space="preserve">
<style type="text/css">
	.st0{fill:none;stroke:#000000;stroke-width:3;stroke-miterlimit:10;}
	.st1{fill:none;}
</style>
<path id="XMLID_1_" class="st0" d="M52.8,70.3H19.2c-9.6,0-17.5-7.9-17.5-17.5V19.2c0-9.6,7.9-17.5,17.5-17.5h33.6
	c9.6,0,17.5,7.9,17.5,17.5v33.6C70.3,62.4,62.4,70.3,52.8,70.3z"/>
<g id="XMLID_2_">
	<rect id="XMLID_9_" x="1.7" y="4.1" class="st1" width="68.6" height="54.3"/>
	<path id="XMLID_6_" d="M23.5,26.7c0-3.7-0.1-6.6-0.2-9.3H28l0.2,4.9h0.1c2.1-3.5,5.5-5.5,10.1-5.5c6.9,0,12.1,5.8,12.1,14.5
		c0,10.2-6.2,15.3-13,15.3c-3.8,0-7.1-1.6-8.8-4.5h-0.1v15.5h-5.1V26.7z M28.7,34.3c0,0.8,0.1,1.5,0.2,2.1c0.9,3.6,4.1,6.1,7.8,6.1
		c5.5,0,8.7-4.5,8.7-11c0-5.7-3-10.6-8.5-10.6c-3.5,0-6.8,2.5-7.8,6.4c-0.2,0.6-0.4,1.4-0.4,2.1V34.3z"/>
</g>
<g id="XMLID_4_">
</g>
<g id="XMLID_3_">
</g>
<g id="XMLID_5_">
</g>
<g id="XMLID_10_">
</g>
<g id="XMLID_11_">
</g>
<g id="XMLID_12_">
</g>
<g id="XMLID_13_">
</g>
</svg>
