<?xml version="1.0" encoding="utf-8"?>
<!-- Generator: Adobe Illustrator 19.0.0, SVG Export Plug-In . SVG Version: 6.00 Build 0)  -->
<svg version="1.1" id="Layer_1" xmlns="http://www.w3.org/2000/svg" xmlns:xlink="http://www.w3.org/1999/xlink" x="0px" y="0px"
	 viewBox="0 0 72 72" style="enable-background:new 0 0 72 72;" xml:space="preserve">
<style type="text/css">
	.st0{fill:none;stroke:#000000;stroke-width:3;stroke-miterlimit:10;}
	.st1{fill:none;}
</style>
<path id="XMLID_1_" class="st0" d="M52.8,70.3H19.2c-9.6,0-17.5-7.9-17.5-17.5V19.2c0-9.6,7.9-17.5,17.5-17.5h33.6
	c9.6,0,17.5,7.9,17.5,17.5v33.6C70.3,62.4,62.4,70.3,52.8,70.3z"/>
<g id="XMLID_3_">
	<rect id="XMLID_11_" x="16" y="8.2" class="st1" width="39.9" height="55.6"/>
	<path id="XMLID_6_" d="M40.2,29.1c-1.5,0.8-3,1.1-4.8,1.1c-4.4,0-8.2-3.2-8.2-8.4c0-5.6,3.9-10.4,9.9-10.4c4.7,0,7.9,3.3,7.9,7.8
		c0,4-2.3,6.4-4.8,6.4c-1.1,0-2.1-0.7-2-2.4H38c-0.9,1.6-2.2,2.4-3.8,2.4s-2.9-1.3-2.9-3.4c0-3.3,2.6-6.4,6.4-6.4
		c1.2,0,2.2,0.2,2.9,0.6l-0.9,4.9c-0.4,2.1-0.1,3,0.8,3c1.4,0,2.9-1.8,2.9-4.9c0-3.9-2.3-6.7-6.5-6.7c-4.4,0-8.1,3.5-8.1,9
		c0,4.5,2.9,7.3,6.9,7.3c1.5,0,3-0.3,4.1-0.9L40.2,29.1z M38.7,17.4c-0.3-0.1-0.7-0.2-1.3-0.2c-2.4,0-4.3,2.2-4.3,4.9
		c0,1.2,0.6,2.1,1.8,2.1c1.6,0,3-2,3.3-3.7L38.7,17.4z"/>
	<path id="XMLID_9_" d="M30.3,59.8v-1.5l1.9-1.8c4.5-4.3,6.5-6.5,6.5-9.2c0-1.8-0.9-3.4-3.5-3.4c-1.6,0-2.9,0.8-3.7,1.5l-0.8-1.7
		c1.2-1,2.9-1.8,5-1.8c3.8,0,5.4,2.6,5.4,5.1c0,3.2-2.3,5.9-6,9.4l-1.4,1.3v0.1h7.9v2C41.6,59.8,30.3,59.8,30.3,59.8z"/>
</g>
<g id="XMLID_4_">
</g>
<g id="XMLID_2_">
</g>
<g id="XMLID_5_">
</g>
<g id="XMLID_12_">
</g>
<g id="XMLID_13_">
</g>
<g id="XMLID_14_">
</g>
<g id="XMLID_15_">
</g>
</svg>
