<?xml version="1.0" encoding="utf-8"?>
<!-- Generator: Adobe Illustrator 19.0.0, SVG Export Plug-In . SVG Version: 6.00 Build 0)  -->
<svg version="1.1" id="Layer_1" xmlns="http://www.w3.org/2000/svg" xmlns:xlink="http://www.w3.org/1999/xlink" x="0px" y="0px"
	 viewBox="31 0 133.2 72" style="enable-background:new 31 0 133.2 72;" xml:space="preserve">
<style type="text/css">
	.st0{fill:none;stroke:#000000;stroke-width:3;stroke-miterlimit:10;}
	.st1{fill:none;}
</style>
<path id="XMLID_1_" class="st0" d="M145,70.3H50.2c-9.6,0-17.5-7.9-17.5-17.5V19.2c0-9.6,7.9-17.5,17.5-17.5H145
	c9.6,0,17.5,7.9,17.5,17.5v33.6C162.5,62.4,154.6,70.3,145,70.3z"/>
<g id="XMLID_4_">
</g>
<g id="XMLID_5_">
</g>
<g id="XMLID_18_">
	<rect id="XMLID_50_" x="31" y="19.8" class="st1" width="133.2" height="31.2"/>
	<path id="XMLID_34_" d="M67.9,19.8v21.1c0,1.5,0,3.3,0.1,4.5h-2.8l-0.1-3H65c-1,1.9-3.1,3.4-5.9,3.4c-4.2,0-7.5-3.6-7.5-8.9
		c0-5.8,3.6-9.4,7.8-9.4c2.7,0,4.5,1.3,5.3,2.7h0.1V19.8H67.9z M64.8,35.1c0-0.4,0-0.9-0.1-1.3c-0.5-2-2.2-3.7-4.6-3.7
		c-3.3,0-5.2,2.9-5.2,6.7c0,3.5,1.7,6.4,5.1,6.4c2.1,0,4.1-1.4,4.6-3.8c0.1-0.4,0.1-0.9,0.1-1.4v-2.9H64.8z"/>
	<path id="XMLID_37_" d="M75,37.3c0.1,4.3,2.8,6,6,6c2.3,0,3.6-0.4,4.8-0.9l0.5,2.3c-1.1,0.5-3,1.1-5.8,1.1c-5.4,0-8.6-3.5-8.6-8.8
		s3.1-9.4,8.2-9.4c5.7,0,7.2,5,7.2,8.2c0,0.6-0.1,1.2-0.1,1.5C87.2,37.3,75,37.3,75,37.3z M84.3,35c0-2-0.8-5.1-4.4-5.1
		c-3.2,0-4.6,3-4.9,5.1H84.3z"/>
	<path id="XMLID_40_" d="M91.2,19.8h3.2v25.6h-3.2V19.8z"/>
	<path id="XMLID_42_" d="M101.5,37.3c0.1,4.3,2.8,6,6,6c2.3,0,3.6-0.4,4.8-0.9l0.5,2.3c-1.1,0.5-3,1.1-5.8,1.1
		c-5.4,0-8.6-3.5-8.6-8.8s3.1-9.4,8.2-9.4c5.7,0,7.2,5,7.2,8.2c0,0.6-0.1,1.2-0.1,1.5C113.7,37.3,101.5,37.3,101.5,37.3z M110.8,35
		c0-2-0.8-5.1-4.4-5.1c-3.2,0-4.6,3-4.9,5.1H110.8z"/>
	<path id="XMLID_45_" d="M121.6,23v5h4.5v2.4h-4.5v9.4c0,2.2,0.6,3.4,2.4,3.4c0.8,0,1.4-0.1,1.8-0.2l0.1,2.4
		c-0.6,0.3-1.6,0.4-2.8,0.4c-1.5,0-2.7-0.5-3.4-1.3c-0.9-0.9-1.2-2.5-1.2-4.5v-9.5h-2.7V28h2.7v-4.2L121.6,23z"/>
	<path id="XMLID_47_" d="M131.2,37.3c0.1,4.3,2.8,6,6,6c2.3,0,3.6-0.4,4.8-0.9l0.5,2.3c-1.1,0.5-3,1.1-5.8,1.1
		c-5.4,0-8.6-3.5-8.6-8.8s3.1-9.4,8.2-9.4c5.7,0,7.2,5,7.2,8.2c0,0.6-0.1,1.2-0.1,1.5C143.4,37.3,131.2,37.3,131.2,37.3z M140.5,35
		c0-2-0.8-5.1-4.4-5.1c-3.2,0-4.6,3-4.9,5.1H140.5z"/>
</g>
<g id="XMLID_19_">
</g>
<g id="XMLID_17_">
</g>
<g id="XMLID_33_">
</g>
<g id="XMLID_51_">
</g>
<g id="XMLID_52_">
</g>
<g id="XMLID_53_">
</g>
<g id="XMLID_54_">
</g>
</svg>
