<?xml version="1.0" encoding="utf-8"?>
<!-- Generator: Adobe Illustrator 19.0.0, SVG Export Plug-In . SVG Version: 6.00 Build 0)  -->
<svg version="1.1" id="Layer_1" xmlns="http://www.w3.org/2000/svg" xmlns:xlink="http://www.w3.org/1999/xlink" x="0px" y="0px"
	 viewBox="0 0 72 72" style="enable-background:new 0 0 72 72;" xml:space="preserve">
<style type="text/css">
	.st0{fill:none;stroke:#000000;stroke-width:3;stroke-miterlimit:10;}
	.st1{fill:none;}
</style>
<path id="XMLID_1_" class="st0" d="M52.8,70.3H19.2c-9.6,0-17.5-7.9-17.5-17.5V19.2c0-9.6,7.9-17.5,17.5-17.5h33.6
	c9.6,0,17.5,7.9,17.5,17.5v33.6C70.3,62.4,62.4,70.3,52.8,70.3z"/>
<g id="XMLID_3_">
	<rect id="XMLID_11_" x="16" y="8.2" class="st1" width="39.9" height="55.6"/>
	<path id="XMLID_6_" d="M35,29.7V27c-1.6,0-3.2-0.5-4.1-1.2l0.6-1.8c1,0.6,2.4,1.2,3.9,1.2c1.9,0,3.2-1.1,3.2-2.6s-1.1-2.4-3.1-3.2
		c-2.8-1.1-4.5-2.3-4.5-4.7c0-2.2,1.6-3.9,4.1-4.3V7.5h1.7v2.6c1.6,0.1,2.7,0.5,3.5,0.9l-0.7,1.8C39.1,12.5,38,12,36.3,12
		c-2.1,0-2.9,1.2-2.9,2.3c0,1.4,1,2.1,3.3,3.1c2.8,1.1,4.2,2.5,4.2,4.9c0,2.1-1.5,4.1-4.3,4.6v2.8C36.6,29.7,35,29.7,35,29.7z"/>
	<path id="XMLID_8_" d="M37.6,59.8V55h-8.2v-1.6l7.8-11.2h2.6v10.9h2.5V55h-2.5v4.8H37.6z M37.6,53.1v-5.9c0-0.9,0-1.8,0.1-2.8h-0.1
		c-0.5,1-1,1.8-1.5,2.6l-4.3,6v0.1C31.8,53.1,37.6,53.1,37.6,53.1z"/>
</g>
<g id="XMLID_4_">
</g>
<g id="XMLID_2_">
</g>
<g id="XMLID_5_">
</g>
<g id="XMLID_12_">
</g>
<g id="XMLID_13_">
</g>
<g id="XMLID_14_">
</g>
<g id="XMLID_15_">
</g>
</svg>
