<?xml version="1.0" encoding="utf-8"?>
<!-- Generator: Adobe Illustrator 19.0.0, SVG Export Plug-In . SVG Version: 6.00 Build 0)  -->
<svg version="1.1" id="Layer_1" xmlns="http://www.w3.org/2000/svg" xmlns:xlink="http://www.w3.org/1999/xlink" x="0px" y="0px"
	 viewBox="0 0 72 72" style="enable-background:new 0 0 72 72;" xml:space="preserve">
<style type="text/css">
	.st0{fill:none;stroke:#000000;stroke-width:3;stroke-miterlimit:10;}
	.st1{fill:none;}
</style>
<path id="XMLID_1_" class="st0" d="M52.8,70.3H19.2c-9.6,0-17.5-7.9-17.5-17.5V19.2c0-9.6,7.9-17.5,17.5-17.5h33.6
	c9.6,0,17.5,7.9,17.5,17.5v33.6C70.3,62.4,62.4,70.3,52.8,70.3z"/>
<g id="XMLID_2_">
	<rect id="XMLID_7_" x="1.7" y="8.1" class="st1" width="68.6" height="54.3"/>
	<path id="XMLID_5_" d="M15.7,29.1c0-2.9-0.1-5.4-0.2-7.7H20l0.2,4.6h0.2c1.6-2.7,4.2-5.2,9-5.2c3.9,0,6.8,2.4,8.1,5.7h0.1
		c0.9-1.6,2-2.8,3.2-3.7c1.7-1.3,3.6-2,6.3-2c3.8,0,9.4,2.5,9.4,12.4v16.8h-5.1V33.8c0-5.5-2-8.8-6.2-8.8c-2.9,0-5.2,2.2-6.1,4.7
		c-0.2,0.7-0.4,1.6-0.4,2.6v17.6h-5.1V32.9c0-4.5-2-7.8-5.9-7.8c-3.2,0-5.6,2.6-6.4,5.2c-0.3,0.8-0.4,1.6-0.4,2.5v17.2h-5.1V29.1z"
		/>
</g>
<g id="XMLID_3_">
</g>
<g id="XMLID_4_">
</g>
<g id="XMLID_8_">
</g>
<g id="XMLID_9_">
</g>
<g id="XMLID_10_">
</g>
<g id="XMLID_11_">
</g>
</svg>
