<?xml version="1.0" encoding="utf-8"?>
<!-- Generator: Adobe Illustrator 19.0.0, SVG Export Plug-In . SVG Version: 6.00 Build 0)  -->
<svg version="1.1" id="Layer_1" xmlns="http://www.w3.org/2000/svg" xmlns:xlink="http://www.w3.org/1999/xlink" x="0px" y="0px"
	 viewBox="0 0 72 72" style="enable-background:new 0 0 72 72;" xml:space="preserve">
<style type="text/css">
	.st0{fill:none;stroke:#000000;stroke-width:3;stroke-miterlimit:10;}
	.st1{fill:none;}
</style>
<path id="XMLID_1_" class="st0" d="M52.8,70.3H19.2c-9.6,0-17.5-7.9-17.5-17.5V19.2c0-9.6,7.9-17.5,17.5-17.5h33.6
	c9.6,0,17.5,7.9,17.5,17.5v33.6C70.3,62.4,62.4,70.3,52.8,70.3z"/>
<g id="XMLID_3_">
	<rect id="XMLID_14_" x="16" y="8.2" class="st1" width="39.9" height="55.6"/>
	<path id="XMLID_6_" d="M34.4,14.8c0,3.7-1.9,5.5-4.2,5.5c-2.2,0-4.1-1.8-4.1-5.3s1.9-5.5,4.2-5.5C32.8,9.5,34.4,11.4,34.4,14.8z
		 M28,14.9c-0.1,2.2,0.8,3.9,2.3,3.9c1.6,0,2.3-1.7,2.3-4c0-2.1-0.6-3.9-2.3-3.9C28.8,11,28,12.7,28,14.9z M30.1,27.7L40.4,9.5h1.5
		L31.6,27.7H30.1z M45.9,22c0,3.7-1.9,5.5-4.2,5.5c-2.2,0-4.1-1.8-4.1-5.3s1.9-5.5,4.2-5.5C44.3,16.8,45.9,18.7,45.9,22z M39.4,22.2
		c0,2.2,0.8,3.9,2.3,3.9c1.6,0,2.3-1.7,2.3-4c0-2.1-0.6-3.9-2.3-3.9C40.2,18.2,39.4,20,39.4,22.2z"/>
	<path id="XMLID_12_" d="M40.8,44.2h-6.7l-0.7,4.5c0.4-0.1,0.8-0.1,1.4-0.1c1.3,0,2.7,0.3,3.8,0.9c1.4,0.8,2.5,2.3,2.5,4.5
		c0,3.4-2.7,6-6.5,6c-1.9,0-3.5-0.5-4.4-1.1l0.6-1.8c0.7,0.4,2.2,1,3.8,1c2.2,0,4.2-1.5,4.2-3.8s-1.5-3.9-5-3.9
		c-1,0-1.8,0.1-2.4,0.2l1.1-8.4h8.4v2H40.8z"/>
</g>
<g id="XMLID_4_">
</g>
<g id="XMLID_2_">
</g>
<g id="XMLID_5_">
</g>
<g id="XMLID_15_">
</g>
<g id="XMLID_16_">
</g>
<g id="XMLID_17_">
</g>
<g id="XMLID_18_">
</g>
</svg>
