<?xml version="1.0" encoding="utf-8"?>
<!-- Generator: Adobe Illustrator 19.0.0, SVG Export Plug-In . SVG Version: 6.00 Build 0)  -->
<svg version="1.1" id="Layer_1" xmlns="http://www.w3.org/2000/svg" xmlns:xlink="http://www.w3.org/1999/xlink" x="0px" y="0px"
	 viewBox="0 0 72 72" style="enable-background:new 0 0 72 72;" xml:space="preserve">
<style type="text/css">
	.st0{fill:none;stroke:#000000;stroke-width:3;stroke-miterlimit:10;}
	.st1{fill:none;}
</style>
<path id="XMLID_1_" class="st0" d="M52.8,70.3H19.2c-9.6,0-17.5-7.9-17.5-17.5V19.2c0-9.6,7.9-17.5,17.5-17.5h33.6
	c9.6,0,17.5,7.9,17.5,17.5v33.6C70.3,62.4,62.4,70.3,52.8,70.3z"/>
<g id="XMLID_2_">
	<rect id="XMLID_7_" x="1.7" y="8.1" class="st1" width="68.6" height="54.3"/>
	<path id="XMLID_5_" d="M47.4,48.9c-1.4,0.7-4.4,1.6-8.2,1.6C30.6,50.5,25,44.7,25,36c0-8.8,6-15.1,15.3-15.1c3.1,0,5.8,0.8,7.2,1.5
		l-1.2,4c-1.2-0.7-3.2-1.4-6-1.4c-6.5,0-10.1,4.8-10.1,10.8c0,6.6,4.2,10.7,9.9,10.7c2.9,0,4.9-0.8,6.4-1.4L47.4,48.9z"/>
</g>
<g id="XMLID_3_">
</g>
<g id="XMLID_4_">
</g>
<g id="XMLID_8_">
</g>
<g id="XMLID_9_">
</g>
<g id="XMLID_10_">
</g>
<g id="XMLID_11_">
</g>
</svg>
