<?xml version="1.0" encoding="utf-8"?>
<!-- Generator: Adobe Illustrator 19.0.0, SVG Export Plug-In . SVG Version: 6.00 Build 0)  -->
<svg version="1.1" id="Layer_1" xmlns="http://www.w3.org/2000/svg" xmlns:xlink="http://www.w3.org/1999/xlink" x="0px" y="0px"
	 viewBox="17 0 105.5 72" style="enable-background:new 17 0 105.5 72;" xml:space="preserve">
<style type="text/css">
	.st0{fill:none;stroke:#000000;stroke-width:3;stroke-miterlimit:10;}
	.st1{fill:none;}
</style>
<path id="XMLID_1_" class="st0" d="M103.3,70.3H36.2c-9.6,0-17.5-7.9-17.5-17.5V19.2c0-9.6,7.9-17.5,17.5-17.5h67.1
	c9.6,0,17.5,7.9,17.5,17.5v33.6C120.8,62.4,112.9,70.3,103.3,70.3z"/>
<g id="XMLID_4_">
</g>
<g id="XMLID_5_">
</g>
<g id="XMLID_18_">
	<rect id="XMLID_38_" x="17" y="22.8" class="st1" width="105.5" height="31.2"/>
	<path id="XMLID_22_" d="M45,35.8c0,5-3.5,7.2-6.7,7.2c-3.7,0-6.5-2.7-6.5-7c0-4.5,3-7.2,6.7-7.2C42.4,28.9,45,31.7,45,35.8z
		 M34.3,36c0,3,1.7,5.2,4.1,5.2c2.4,0,4.1-2.2,4.1-5.3c0-2.3-1.1-5.2-4.1-5.2S34.3,33.4,34.3,36z"/>
	<path id="XMLID_25_" d="M48.1,33.6c0-1.7-0.1-3.1-0.1-4.4h2.2l0.1,2.3h0.1c1-1.7,2.6-2.6,4.8-2.6c3.3,0,5.7,2.8,5.7,6.9
		c0,4.9-3,7.3-6.2,7.3c-1.8,0-3.4-0.8-4.2-2.1h-0.1v7.4H48L48.1,33.6L48.1,33.6z M50.6,37.2c0,0.4,0.1,0.7,0.1,1
		c0.4,1.7,1.9,2.9,3.7,2.9c2.6,0,4.1-2.1,4.1-5.2c0-2.7-1.4-5-4-5c-1.7,0-3.2,1.2-3.7,3.1c-0.1,0.3-0.2,0.7-0.2,1
		C50.6,35,50.6,37.2,50.6,37.2z"/>
	<path id="XMLID_28_" d="M67,25.3v3.9h3.5V31H67v7.3c0,1.7,0.5,2.6,1.8,2.6c0.6,0,1.1-0.1,1.4-0.2l0.1,1.8c-0.5,0.2-1.2,0.3-2.2,0.3
		c-1.1,0-2.1-0.4-2.7-1c-0.7-0.7-1-1.9-1-3.5V31h-2.1v-1.9h2.1v-3.2L67,25.3z"/>
	<path id="XMLID_30_" d="M76.1,25.4c0,0.8-0.6,1.5-1.6,1.5c-0.9,0-1.5-0.7-1.5-1.5c0-0.9,0.6-1.5,1.5-1.5
		C75.5,23.8,76.1,24.5,76.1,25.4z M73.3,42.7V29.2h2.5v13.6h-2.5V42.7z"/>
	<path id="XMLID_33_" d="M92.1,35.8c0,5-3.5,7.2-6.7,7.2c-3.7,0-6.5-2.7-6.5-7c0-4.5,3-7.2,6.7-7.2C89.5,28.9,92.1,31.7,92.1,35.8z
		 M81.4,36c0,3,1.7,5.2,4.1,5.2s4.1-2.2,4.1-5.3c0-2.3-1.1-5.2-4.1-5.2C82.7,30.7,81.4,33.4,81.4,36z"/>
	<path id="XMLID_36_" d="M95.3,32.8c0-1.4,0-2.5-0.1-3.7h2.2l0.1,2.2h0.1c0.7-1.3,2.2-2.5,4.5-2.5c1.9,0,4.8,1.1,4.8,5.8v8.1h-2.5
		v-7.8c0-2.2-0.8-4-3.1-4c-1.6,0-2.9,1.1-3.3,2.5c-0.1,0.3-0.2,0.7-0.2,1.1v8.1h-2.5V32.8z"/>
</g>
<g id="XMLID_19_">
</g>
<g id="XMLID_20_">
</g>
<g id="XMLID_17_">
</g>
<g id="XMLID_21_">
</g>
<g id="XMLID_39_">
</g>
<g id="XMLID_40_">
</g>
<g id="XMLID_41_">
</g>
<g id="XMLID_42_">
</g>
</svg>
