<?xml version="1.0" encoding="utf-8"?>
<!-- Generator: Adobe Illustrator 19.0.0, SVG Export Plug-In . SVG Version: 6.00 Build 0)  -->
<svg version="1.1" id="Layer_1" xmlns="http://www.w3.org/2000/svg" xmlns:xlink="http://www.w3.org/1999/xlink" x="0px" y="0px"
	 viewBox="0 0 72 72" style="enable-background:new 0 0 72 72;" xml:space="preserve">
<style type="text/css">
	.st0{fill:none;stroke:#000000;stroke-width:3;stroke-miterlimit:10;}
	.st1{fill:none;}
</style>
<path id="XMLID_1_" class="st0" d="M52.8,70.3H19.2c-9.6,0-17.5-7.9-17.5-17.5V19.2c0-9.6,7.9-17.5,17.5-17.5h33.6
	c9.6,0,17.5,7.9,17.5,17.5v33.6C70.3,62.4,62.4,70.3,52.8,70.3z"/>
<g id="XMLID_3_">
	<rect id="XMLID_11_" x="16" y="8.2" class="st1" width="39.9" height="55.6"/>
	<path id="XMLID_6_" d="M39.3,8.6c-2,2.6-3.4,6.2-3.4,11s1.5,8.3,3.4,11h-1.9c-1.7-2.2-3.5-5.7-3.5-11s1.8-8.8,3.5-11H39.3z"/>
	<path id="XMLID_8_" d="M31.7,58.1c0.5,0.1,1.1,0,1.9-0.1c1.4-0.2,2.7-0.8,3.7-1.7c1.2-1.1,2-2.6,2.3-4.7h-0.1
		c-1,1.2-2.4,1.9-4.1,1.9c-3.2,0-5.2-2.4-5.2-5.4c0-3.3,2.4-6.2,6-6.2s5.8,2.9,5.8,7.4c0,3.9-1.3,6.6-3,8.2
		c-1.3,1.3-3.2,2.1-5.1,2.3C33,60,32.2,60.1,31.7,60V58.1z M32.5,48c0,2.2,1.3,3.7,3.4,3.7c1.6,0,2.8-0.8,3.5-1.8
		c0.1-0.2,0.2-0.5,0.2-0.9c0-3-1.1-5.3-3.6-5.3C34,43.7,32.5,45.5,32.5,48z"/>
</g>
<g id="XMLID_4_">
</g>
<g id="XMLID_2_">
</g>
<g id="XMLID_5_">
</g>
<g id="XMLID_12_">
</g>
<g id="XMLID_13_">
</g>
<g id="XMLID_14_">
</g>
<g id="XMLID_15_">
</g>
</svg>
