<?xml version="1.0" encoding="utf-8"?>
<!-- Generator: Adobe Illustrator 19.0.0, SVG Export Plug-In . SVG Version: 6.00 Build 0)  -->
<svg version="1.1" id="Layer_1" xmlns="http://www.w3.org/2000/svg" xmlns:xlink="http://www.w3.org/1999/xlink" x="0px" y="0px"
	 viewBox="0 0 72 72" style="enable-background:new 0 0 72 72;" xml:space="preserve">
<style type="text/css">
	.st0{fill:none;stroke:#000000;stroke-width:3;stroke-miterlimit:10;}
	.st1{fill:none;}
</style>
<path id="XMLID_1_" class="st0" d="M52.8,70.3H19.2c-9.6,0-17.5-7.9-17.5-17.5V19.2c0-9.6,7.9-17.5,17.5-17.5h33.6
	c9.6,0,17.5,7.9,17.5,17.5v33.6C70.3,62.4,62.4,70.3,52.8,70.3z"/>
<g id="XMLID_2_">
	<rect id="XMLID_8_" x="1.7" y="13.1" class="st1" width="68.6" height="54.3"/>
	<path id="XMLID_6_" d="M36.8,18.2v8.2h7.4v3.9h-7.4v15.4c0,3.5,1,5.5,3.9,5.5c1.4,0,2.4-0.2,3-0.4l0.2,3.9c-1,0.4-2.6,0.7-4.6,0.7
		c-2.4,0-4.4-0.8-5.6-2.2c-1.5-1.5-2-4.1-2-7.4V30.4h-4.4v-3.9h4.4v-6.8L36.8,18.2z"/>
</g>
<g id="XMLID_4_">
</g>
<g id="XMLID_3_">
</g>
<g id="XMLID_5_">
</g>
<g id="XMLID_9_">
</g>
<g id="XMLID_10_">
</g>
<g id="XMLID_11_">
</g>
<g id="XMLID_12_">
</g>
</svg>
