<?xml version="1.0" encoding="utf-8"?>
<!-- Generator: Adobe Illustrator 19.0.0, SVG Export Plug-In . SVG Version: 6.00 Build 0)  -->
<svg version="1.1" id="Layer_1" xmlns="http://www.w3.org/2000/svg" xmlns:xlink="http://www.w3.org/1999/xlink" x="0px" y="0px"
	 viewBox="0 0 72 72" style="enable-background:new 0 0 72 72;" xml:space="preserve">
<style type="text/css">
	.st0{fill:none;stroke:#000000;stroke-width:3;stroke-miterlimit:10;}
	.st1{fill:none;}
</style>
<path id="XMLID_1_" class="st0" d="M52.8,70.3H19.2c-9.6,0-17.5-7.9-17.5-17.5V19.2c0-9.6,7.9-17.5,17.5-17.5h33.6
	c9.6,0,17.5,7.9,17.5,17.5v33.6C70.3,62.4,62.4,70.3,52.8,70.3z"/>
<g id="XMLID_2_">
	<rect id="XMLID_8_" x="1.7" y="4.1" class="st1" width="68.6" height="54.3"/>
	<path id="XMLID_6_" d="M28.3,17.4l6.2,16.8c0.6,1.9,1.4,4.1,1.8,5.8h0.1c0.5-1.7,1.1-3.9,1.8-5.9L44,17.4h5.5l-7.8,20.3
		c-3.7,9.8-6.2,14.8-9.8,17.8c-2.5,2.2-5.1,3.1-6.4,3.4l-1.3-4.4c1.3-0.4,3-1.2,4.5-2.5c1.4-1.1,3.2-3.1,4.4-5.8
		c0.2-0.5,0.4-0.9,0.4-1.2c0-0.3-0.1-0.7-0.4-1.4L22.7,17.4H28.3z"/>
</g>
<g id="XMLID_4_">
</g>
<g id="XMLID_3_">
</g>
<g id="XMLID_5_">
</g>
<g id="XMLID_9_">
</g>
<g id="XMLID_10_">
</g>
<g id="XMLID_11_">
</g>
<g id="XMLID_12_">
</g>
</svg>
