<?xml version="1.0" encoding="utf-8"?>
<!-- Generator: Adobe Illustrator 19.0.0, SVG Export Plug-In . SVG Version: 6.00 Build 0)  -->
<svg version="1.1" id="Layer_1" xmlns="http://www.w3.org/2000/svg" xmlns:xlink="http://www.w3.org/1999/xlink" x="0px" y="0px"
	 viewBox="0 0 72 72" style="enable-background:new 0 0 72 72;" xml:space="preserve">
<style type="text/css">
	.st0{fill:none;stroke:#000000;stroke-width:3;stroke-miterlimit:10;}
	.st1{fill:none;}
</style>
<path id="XMLID_1_" class="st0" d="M52.8,70.3H19.2c-9.6,0-17.5-7.9-17.5-17.5V19.2c0-9.6,7.9-17.5,17.5-17.5h33.6
	c9.6,0,17.5,7.9,17.5,17.5v33.6C70.3,62.4,62.4,70.3,52.8,70.3z"/>
<g id="XMLID_2_">
	<rect id="XMLID_7_" x="1.7" y="8.1" class="st1" width="68.6" height="54.3"/>
	<path id="XMLID_5_" d="M27.9,44.6c1.5,1,4.2,2.1,6.8,2.1c3.8,0,5.5-1.9,5.5-4.2c0-2.5-1.5-3.8-5.3-5.2c-5.1-1.8-7.5-4.7-7.5-8.1
		c0-4.6,3.7-8.4,9.8-8.4c2.9,0,5.4,0.8,7,1.8L43,26.3c-1.1-0.7-3.2-1.6-5.8-1.6c-3.1,0-4.8,1.8-4.8,3.9c0,2.4,1.7,3.4,5.4,4.8
		c4.9,1.9,7.5,4.4,7.5,8.6c0,5-3.9,8.5-10.7,8.5c-3.1,0-6-0.8-8-1.9L27.9,44.6z"/>
</g>
<g id="XMLID_3_">
</g>
<g id="XMLID_4_">
</g>
<g id="XMLID_8_">
</g>
<g id="XMLID_9_">
</g>
<g id="XMLID_10_">
</g>
<g id="XMLID_11_">
</g>
</svg>
