<?xml version="1.0" encoding="utf-8"?>
<!-- Generator: Adobe Illustrator 19.0.0, SVG Export Plug-In . SVG Version: 6.00 Build 0)  -->
<svg version="1.1" id="Layer_1" xmlns="http://www.w3.org/2000/svg" xmlns:xlink="http://www.w3.org/1999/xlink" x="0px" y="0px"
	 viewBox="17 0 105.5 72" style="enable-background:new 17 0 105.5 72;" xml:space="preserve">
<style type="text/css">
	.st0{fill:none;stroke:#000000;stroke-width:3;stroke-miterlimit:10;}
	.st1{fill:none;}
</style>
<path id="XMLID_1_" class="st0" d="M103.3,70.3H36.2c-9.6,0-17.5-7.9-17.5-17.5V19.2c0-9.6,7.9-17.5,17.5-17.5h67.1
	c9.6,0,17.5,7.9,17.5,17.5v33.6C120.8,62.4,112.9,70.3,103.3,70.3z"/>
<g id="XMLID_4_">
</g>
<g id="XMLID_5_">
</g>
<g id="XMLID_18_">
	<rect id="XMLID_25_" x="17" y="17.8" class="st1" width="105.5" height="31.2"/>
	<path id="XMLID_21_" d="M55.4,47.7V30.1h-2.9v-2.8h2.9v-1c0-2.9,0.6-5.5,2.4-7.1c1.4-1.3,3.2-1.9,5-1.9c1.3,0,2.4,0.3,3.2,0.6
		l-0.5,2.9c-0.5-0.3-1.3-0.5-2.4-0.5c-3.2,0-3.9,2.8-3.9,5.9v1.1H64v2.8h-5v17.5h-3.6V47.7z"/>
	<path id="XMLID_23_" d="M67.3,32.8c0-2.1,0-3.8-0.2-5.5h3.3l0.2,3.4h0.1c1-1.9,3.4-3.8,6.7-3.8c2.8,0,7.2,1.7,7.2,8.7v12.1h-3.7
		V35.9c0-3.3-1.2-6-4.7-6c-2.4,0-4.3,1.7-5,3.8c-0.2,0.5-0.3,1.1-0.3,1.7v12.2h-3.7V32.8H67.3z"/>
</g>
<g id="XMLID_19_">
</g>
<g id="XMLID_17_">
</g>
<g id="XMLID_20_">
</g>
<g id="XMLID_26_">
</g>
<g id="XMLID_27_">
</g>
<g id="XMLID_28_">
</g>
<g id="XMLID_29_">
</g>
</svg>
