<?xml version="1.0" encoding="utf-8"?>
<!-- Generator: Adobe Illustrator 19.0.0, SVG Export Plug-In . SVG Version: 6.00 Build 0)  -->
<svg version="1.1" id="Layer_1" xmlns="http://www.w3.org/2000/svg" xmlns:xlink="http://www.w3.org/1999/xlink" x="0px" y="0px"
	 viewBox="17 0 105.5 72" style="enable-background:new 17 0 105.5 72;" xml:space="preserve">
<style type="text/css">
	.st0{fill:none;stroke:#000000;stroke-width:3;stroke-miterlimit:10;}
	.st1{fill:none;}
</style>
<path id="XMLID_1_" class="st0" d="M103.3,70.3H36.2c-9.6,0-17.5-7.9-17.5-17.5V19.2c0-9.6,7.9-17.5,17.5-17.5h67.1
	c9.6,0,17.5,7.9,17.5,17.5v33.6C120.8,62.4,112.9,70.3,103.3,70.3z"/>
<g id="XMLID_4_">
</g>
<g id="XMLID_5_">
</g>
<g id="XMLID_18_">
	<rect id="XMLID_30_" x="17" y="17.8" class="st1" width="105.5" height="31.2"/>
	<path id="XMLID_20_" d="M47.5,46.9c-1,0.5-3.1,1.2-5.8,1.2c-6.1,0-10.1-4.2-10.1-10.4c0-6.3,4.3-10.8,10.9-10.8
		c2.2,0,4.1,0.5,5.1,1l-0.8,2.9c-0.9-0.5-2.3-1-4.3-1c-4.7,0-7.2,3.4-7.2,7.7c0,4.7,3,7.6,7.1,7.6c2.1,0,3.5-0.5,4.5-1L47.5,46.9z"
		/>
	<path id="XMLID_22_" d="M63.1,47.7l-0.3-2.6h-0.1c-1.1,1.6-3.3,3-6.2,3c-4.1,0-6.2-2.9-6.2-5.8c0-4.9,4.4-7.6,12.2-7.6v-0.4
		c0-1.7-0.5-4.7-4.6-4.7c-1.9,0-3.9,0.6-5.3,1.5l-0.8-2.4c1.7-1.1,4.1-1.8,6.7-1.8c6.2,0,7.7,4.2,7.7,8.3v7.6c0,1.8,0.1,3.5,0.3,4.9
		C66.5,47.7,63.1,47.7,63.1,47.7z M62.5,37.3c-4-0.1-8.6,0.6-8.6,4.6c0,2.4,1.6,3.5,3.5,3.5c2.6,0,4.3-1.7,4.9-3.4
		c0.1-0.4,0.2-0.8,0.2-1.2C62.5,40.8,62.5,37.3,62.5,37.3z"/>
	<path id="XMLID_25_" d="M72.1,34c0-2.6-0.1-4.7-0.2-6.6h3.3l0.2,3.5h0.1c1.5-2.5,3.9-3.9,7.2-3.9c4.9,0,8.6,4.2,8.6,10.3
		c0,7.3-4.5,10.9-9.2,10.9c-2.7,0-5-1.2-6.3-3.2h-0.1v11H72L72.1,34L72.1,34z M75.7,39.4c0,0.5,0.1,1.1,0.2,1.5
		c0.7,2.6,2.9,4.3,5.5,4.3c3.9,0,6.2-3.2,6.2-7.9c0-4.1-2.1-7.6-6-7.6c-2.5,0-4.9,1.8-5.6,4.6c-0.1,0.5-0.3,1-0.3,1.5V39.4z"/>
	<path id="XMLID_28_" d="M95.5,43.9c1.1,0.7,3,1.5,4.9,1.5c2.7,0,3.9-1.3,3.9-3c0-1.8-1-2.7-3.8-3.7c-3.7-1.3-5.4-3.3-5.4-5.8
		c0-3.3,2.6-6,7-6c2.1,0,3.9,0.6,5,1.3l-0.9,2.7c-0.8-0.5-2.3-1.2-4.2-1.2c-2.2,0-3.4,1.3-3.4,2.8c0,1.7,1.2,2.4,3.9,3.4
		c3.5,1.3,5.3,3.1,5.3,6.1c0,3.6-2.8,6.1-7.6,6.1c-2.2,0-4.3-0.5-5.7-1.4L95.5,43.9z"/>
</g>
<g id="XMLID_17_">
</g>
<g id="XMLID_19_">
</g>
<g id="XMLID_31_">
</g>
<g id="XMLID_32_">
</g>
<g id="XMLID_33_">
</g>
<g id="XMLID_34_">
</g>
</svg>
