<?xml version="1.0" encoding="utf-8"?>
<!-- Generator: Adobe Illustrator 19.0.0, SVG Export Plug-In . SVG Version: 6.00 Build 0)  -->
<svg version="1.1" id="Layer_1" xmlns="http://www.w3.org/2000/svg" xmlns:xlink="http://www.w3.org/1999/xlink" x="0px" y="0px"
	 viewBox="0 0 72 72" style="enable-background:new 0 0 72 72;" xml:space="preserve">
<style type="text/css">
	.st0{fill:none;stroke:#000000;stroke-width:3;stroke-miterlimit:10;}
	.st1{fill:none;}
</style>
<path id="XMLID_1_" class="st0" d="M52.8,70.3H19.2c-9.6,0-17.5-7.9-17.5-17.5V19.2c0-9.6,7.9-17.5,17.5-17.5h33.6
	c9.6,0,17.5,7.9,17.5,17.5v33.6C70.3,62.4,62.4,70.3,52.8,70.3z"/>
<g id="XMLID_2_">
	<rect id="XMLID_9_" x="1.7" y="13.1" class="st1" width="68.6" height="54.3"/>
	<path id="XMLID_6_" d="M48.3,13.1v34.4c0,2.5,0.1,5.4,0.2,7.4h-4.7L43.7,50h-0.1c-1.6,3.2-5.1,5.6-9.7,5.6
		c-6.9,0-12.2-5.8-12.2-14.5c-0.1-9.5,5.8-15.3,12.8-15.3c4.4,0,7.3,2.1,8.6,4.4h0.1v-17H48.3z M43.1,38c0-0.6-0.1-1.5-0.2-2.2
		c-0.8-3.3-3.6-6-7.5-6c-5.4,0-8.5,4.7-8.5,11c0,5.8,2.8,10.5,8.4,10.5c3.5,0,6.7-2.3,7.6-6.2c0.2-0.7,0.2-1.4,0.2-2.2V38z"/>
</g>
<g id="XMLID_4_">
</g>
<g id="XMLID_3_">
</g>
<g id="XMLID_5_">
</g>
<g id="XMLID_10_">
</g>
<g id="XMLID_11_">
</g>
<g id="XMLID_12_">
</g>
<g id="XMLID_13_">
</g>
</svg>
