<?xml version="1.0" encoding="utf-8"?>
<!-- Generator: Adobe Illustrator 19.0.0, SVG Export Plug-In . SVG Version: 6.00 Build 0)  -->
<svg version="1.1" id="Layer_1" xmlns="http://www.w3.org/2000/svg" xmlns:xlink="http://www.w3.org/1999/xlink" x="0px" y="0px"
	 viewBox="0 0 72 72" style="enable-background:new 0 0 72 72;" xml:space="preserve">
<style type="text/css">
	.st0{fill:none;stroke:#000000;stroke-width:3;stroke-miterlimit:10;}
	.st1{fill:none;}
</style>
<path id="XMLID_1_" class="st0" d="M52.8,70.3H19.2c-9.6,0-17.5-7.9-17.5-17.5V19.2c0-9.6,7.9-17.5,17.5-17.5h33.6
	c9.6,0,17.5,7.9,17.5,17.5v33.6C70.3,62.4,62.4,70.3,52.8,70.3z"/>
<g id="XMLID_3_">
	<rect id="XMLID_12_" x="16" y="8.2" class="st1" width="39.9" height="55.6"/>
	<path id="XMLID_6_" d="M39.3,9.8l-2.6,3.4v0.1l4.1-0.5v1.8L36.7,14v0.1l2.6,3.2l-1.7,1L36,14.5h-0.1l-1.8,3.8l-1.5-1l2.6-3.3v0
		l-4,0.5v-1.8l4,0.5v-0.1l-2.5-3.3l1.6-0.9l1.7,3.8l0,0l1.6-3.8L39.3,9.8z"/>
	<path id="XMLID_8_" d="M30.1,55.3c0-2.2,1.3-3.8,3.5-4.7v-0.1c-1.9-0.9-2.8-2.4-2.8-3.9c0-2.8,2.3-4.7,5.4-4.7
		c3.4,0,5.1,2.1,5.1,4.3c0,1.5-0.7,3.1-2.9,4.1v0.1c2.2,0.9,3.5,2.4,3.5,4.5c0,3-2.6,5.1-6,5.1C32.3,60.1,30.1,57.9,30.1,55.3z
		 M39.5,55.2c0-2.1-1.5-3.2-3.9-3.8c-2.1,0.6-3.2,1.9-3.2,3.6c-0.1,1.8,1.3,3.3,3.5,3.3S39.5,57,39.5,55.2z M33,46.4
		c0,1.8,1.3,2.7,3.3,3.2c1.5-0.5,2.7-1.6,2.7-3.2c0-1.4-0.8-2.9-3-2.9C34.1,43.6,33,44.9,33,46.4z"/>
</g>
<g id="XMLID_4_">
</g>
<g id="XMLID_2_">
</g>
<g id="XMLID_5_">
</g>
<g id="XMLID_13_">
</g>
<g id="XMLID_14_">
</g>
<g id="XMLID_15_">
</g>
<g id="XMLID_16_">
</g>
</svg>
