<?xml version="1.0" encoding="utf-8"?>
<!-- Generator: Adobe Illustrator 19.0.0, SVG Export Plug-In . SVG Version: 6.00 Build 0)  -->
<svg version="1.1" id="Layer_1" xmlns="http://www.w3.org/2000/svg" xmlns:xlink="http://www.w3.org/1999/xlink" x="0px" y="0px"
	 viewBox="0 0 72 72" style="enable-background:new 0 0 72 72;" xml:space="preserve">
<style type="text/css">
	.st0{fill:none;stroke:#000000;stroke-width:3;stroke-miterlimit:10;}
	.st1{fill:none;}
</style>
<path id="XMLID_1_" class="st0" d="M52.8,70.3H19.2c-9.6,0-17.5-7.9-17.5-17.5V19.2c0-9.6,7.9-17.5,17.5-17.5h33.6
	c9.6,0,17.5,7.9,17.5,17.5v33.6C70.3,62.4,62.4,70.3,52.8,70.3z"/>
<g id="XMLID_3_">
	<rect id="XMLID_11_" x="16" y="8.2" class="st1" width="39.9" height="55.6"/>
	<path id="XMLID_5_" d="M34.6,16.5c0-1,0.7-1.7,1.6-1.7s1.6,0.7,1.6,1.7c0,0.9-0.6,1.7-1.6,1.7C35.3,18.1,34.6,17.4,34.6,16.5z
		 M34.6,26c0-1,0.7-1.7,1.6-1.7s1.6,0.7,1.6,1.7c0,0.9-0.6,1.7-1.6,1.7C35.3,27.7,34.6,26.9,34.6,26z"/>
	<path id="XMLID_8_" d="M33.7,63.1c0.6-1.6,1.3-4.5,1.6-6.5l2.6-0.3c-0.6,2.3-1.8,5.3-2.6,6.6L33.7,63.1z M34.8,48.9
		c0-1,0.7-1.7,1.6-1.7c1,0,1.6,0.7,1.6,1.7c0,0.9-0.6,1.7-1.6,1.7C35.5,50.5,34.8,49.8,34.8,48.9z"/>
</g>
<g id="XMLID_2_">
</g>
<g id="XMLID_4_">
</g>
<g id="XMLID_12_">
</g>
<g id="XMLID_13_">
</g>
<g id="XMLID_14_">
</g>
<g id="XMLID_15_">
</g>
</svg>
