<?xml version="1.0" encoding="utf-8"?>
<!-- Generator: Adobe Illustrator 19.0.0, SVG Export Plug-In . SVG Version: 6.00 Build 0)  -->
<svg version="1.1" id="Layer_1" xmlns="http://www.w3.org/2000/svg" xmlns:xlink="http://www.w3.org/1999/xlink" x="0px" y="0px"
	 viewBox="0 0 72 72" style="enable-background:new 0 0 72 72;" xml:space="preserve">
<style type="text/css">
	.st0{fill:none;stroke:#000000;stroke-width:3;stroke-miterlimit:10;}
	.st1{fill:none;}
</style>
<path id="XMLID_1_" class="st0" d="M52.8,70.3H19.2c-9.6,0-17.5-7.9-17.5-17.5V19.2c0-9.6,7.9-17.5,17.5-17.5h33.6
	c9.6,0,17.5,7.9,17.5,17.5v33.6C70.3,62.4,62.4,70.3,52.8,70.3z"/>
<g id="XMLID_3_">
	<rect id="XMLID_10_" x="16" y="8.2" class="st1" width="39.9" height="55.6"/>
	<path id="XMLID_5_" d="M34.3,22.2l-0.1-0.7c-0.2-1.5,0.3-3.1,1.7-4.7c1.2-1.4,1.9-2.5,1.9-3.7c0-1.4-0.9-2.3-2.6-2.3
		c-1,0-2.1,0.3-2.7,0.8L31.9,10c0.9-0.6,2.4-1.1,3.9-1.1c3.1,0,4.5,1.9,4.5,4c0,1.8-1,3.2-2.3,4.7c-1.2,1.4-1.6,2.6-1.5,4v0.7
		L34.3,22.2L34.3,22.2z M33.7,26c0-1,0.7-1.7,1.6-1.7s1.6,0.7,1.6,1.7c0,0.9-0.6,1.7-1.6,1.7C34.4,27.7,33.7,26.9,33.7,26z"/>
	<path id="XMLID_8_" d="M31.3,60.8l7.5-19.6h1.8L33,60.8C33,60.8,31.3,60.8,31.3,60.8z"/>
</g>
<g id="XMLID_2_">
</g>
<g id="XMLID_4_">
</g>
<g id="XMLID_11_">
</g>
<g id="XMLID_12_">
</g>
<g id="XMLID_13_">
</g>
<g id="XMLID_14_">
</g>
</svg>
