<?xml version="1.0" encoding="utf-8"?>
<!-- Generator: Adobe Illustrator 19.0.0, SVG Export Plug-In . SVG Version: 6.00 Build 0)  -->
<svg version="1.1" id="Layer_1" xmlns="http://www.w3.org/2000/svg" xmlns:xlink="http://www.w3.org/1999/xlink" x="0px" y="0px"
	 viewBox="17 0 105.5 72" style="enable-background:new 17 0 105.5 72;" xml:space="preserve">
<style type="text/css">
	.st0{fill:none;stroke:#000000;stroke-width:3;stroke-miterlimit:10;}
	.st1{fill:none;}
</style>
<path id="XMLID_1_" class="st0" d="M103.3,70.3H36.2c-9.6,0-17.5-7.9-17.5-17.5V19.2c0-9.6,7.9-17.5,17.5-17.5h67.1
	c9.6,0,17.5,7.9,17.5,17.5v33.6C120.8,62.4,112.9,70.3,103.3,70.3z"/>
<g id="XMLID_4_">
</g>
<g id="XMLID_5_">
</g>
<g id="XMLID_18_">
	<rect id="XMLID_28_" x="17" y="17.8" class="st1" width="105.5" height="31.2"/>
	<path id="XMLID_20_" d="M48.2,21.5v5.8h5.3v2.8h-5.3v11c0,2.5,0.7,3.9,2.8,3.9c1,0,1.7-0.1,2.1-0.3l0.2,2.8
		C52.6,47.8,51.5,48,50,48c-1.7,0-3.1-0.5-4-1.6c-1.1-1.1-1.4-2.9-1.4-5.3v-11h-3.2v-2.8h3.2v-4.9L48.2,21.5z"/>
	<path id="XMLID_22_" d="M68.9,47.7l-0.3-2.6h-0.1c-1.1,1.6-3.3,3-6.2,3c-4.1,0-6.2-2.9-6.2-5.8c0-4.9,4.4-7.6,12.2-7.6v-0.4
		c0-1.7-0.5-4.7-4.6-4.7c-1.9,0-3.9,0.6-5.3,1.5l-0.8-2.4c1.7-1.1,4.1-1.8,6.7-1.8c6.2,0,7.7,4.2,7.7,8.3v7.6c0,1.8,0.1,3.5,0.3,4.9
		C72.3,47.7,68.9,47.7,68.9,47.7z M68.4,37.3c-4-0.1-8.6,0.6-8.6,4.6c0,2.4,1.6,3.5,3.5,3.5c2.6,0,4.3-1.7,4.9-3.4
		c0.1-0.4,0.2-0.8,0.2-1.2C68.4,40.8,68.4,37.3,68.4,37.3z"/>
	<path id="XMLID_25_" d="M77.8,47.7c0.1-1.4,0.2-3.4,0.2-5.3V17.8h3.7v12.8h0.1c1.3-2.3,3.7-3.7,6.9-3.7c5,0,8.6,4.2,8.6,10.4
		c0,7.3-4.6,10.9-9.1,10.9c-2.9,0-5.3-1.1-6.8-3.8h-0.1l-0.2,3.4L77.8,47.7L77.8,47.7z M81.6,39.5c0,0.5,0.1,0.9,0.2,1.3
		c0.7,2.6,2.9,4.3,5.5,4.3c3.9,0,6.2-3.2,6.2-7.8c0-4.1-2.1-7.6-6-7.6c-2.5,0-4.9,1.7-5.6,4.5c-0.1,0.4-0.2,0.9-0.2,1.5L81.6,39.5
		L81.6,39.5z"/>
</g>
<g id="XMLID_17_">
</g>
<g id="XMLID_19_">
</g>
<g id="XMLID_29_">
</g>
<g id="XMLID_30_">
</g>
<g id="XMLID_31_">
</g>
<g id="XMLID_32_">
</g>
</svg>
