<?xml version="1.0" encoding="utf-8"?>
<!-- Generator: Adobe Illustrator 19.0.0, SVG Export Plug-In . SVG Version: 6.00 Build 0)  -->
<svg version="1.1" id="Layer_1" xmlns="http://www.w3.org/2000/svg" xmlns:xlink="http://www.w3.org/1999/xlink" x="0px" y="0px"
	 viewBox="31 0 133.2 72" style="enable-background:new 31 0 133.2 72;" xml:space="preserve">
<style type="text/css">
	.st0{fill:none;stroke:#000000;stroke-width:3;stroke-miterlimit:10;}
	.st1{fill:none;}
</style>
<path id="XMLID_1_" class="st0" d="M145,70.3H50.2c-9.6,0-17.5-7.9-17.5-17.5V19.2c0-9.6,7.9-17.5,17.5-17.5H145
	c9.6,0,17.5,7.9,17.5,17.5v33.6C162.5,62.4,154.6,70.3,145,70.3z"/>
<g id="XMLID_4_">
</g>
<g id="XMLID_5_">
</g>
<g id="XMLID_18_">
	<rect id="XMLID_57_" x="31" y="23.8" class="st1" width="133.2" height="31.2"/>
	<path id="XMLID_34_" d="M42.7,42.3c0.1-0.9,0.1-2.1,0.1-3.2V23.8h2.3v7.9h0.1c0.8-1.4,2.3-2.3,4.3-2.3c3.1,0,5.3,2.6,5.3,6.4
		c0,4.5-2.8,6.7-5.6,6.7c-1.8,0-3.3-0.7-4.2-2.4h-0.1l-0.1,2.1h-2.1V42.3z M45.1,37.3c0,0.3,0.1,0.6,0.1,0.8
		c0.4,1.6,1.8,2.7,3.4,2.7c2.4,0,3.8-2,3.8-4.8c0-2.5-1.3-4.7-3.7-4.7c-1.6,0-3,1.1-3.5,2.8c-0.1,0.3-0.1,0.6-0.1,0.9
		C45.1,35,45.1,37.3,45.1,37.3z"/>
	<path id="XMLID_37_" d="M64.6,42.3l-0.2-1.6h-0.1c-0.7,1-2.1,1.9-3.8,1.9c-2.5,0-3.8-1.8-3.8-3.6c0-3,2.7-4.7,7.6-4.7V34
		c0-1-0.3-2.9-2.9-2.9c-1.2,0-2.4,0.4-3.3,0.9l-0.5-1.5c1-0.7,2.5-1.1,4.1-1.1c3.8,0,4.8,2.6,4.8,5.1v4.7c0,1.1,0.1,2.2,0.2,3
		L64.6,42.3L64.6,42.3z M64.2,35.9c-2.5-0.1-5.3,0.4-5.3,2.8c0,1.5,1,2.2,2.2,2.2c1.6,0,2.7-1,3-2.1c0.1-0.2,0.1-0.5,0.1-0.7V35.9z"
		/>
	<path id="XMLID_40_" d="M79.1,41.8c-0.6,0.3-1.9,0.7-3.6,0.7c-3.8,0-6.3-2.6-6.3-6.4c0-3.9,2.7-6.7,6.8-6.7c1.4,0,2.5,0.3,3.2,0.6
		l-0.5,1.8c-0.5-0.3-1.4-0.6-2.7-0.6c-2.9,0-4.4,2.1-4.4,4.8c0,2.9,1.9,4.7,4.4,4.7c1.3,0,2.2-0.3,2.8-0.6L79.1,41.8z"/>
	<path id="XMLID_42_" d="M84.1,35.5L84.1,35.5c0.4-0.4,0.8-1,1.2-1.4l3.7-4.3h2.8L86.9,35l5.5,7.4h-2.8l-4.3-6l-1.2,1.3v4.7h-2.3
		V23.8h2.3V35.5z"/>
	<path id="XMLID_44_" d="M93.7,40c0.7,0.4,1.9,0.9,3,0.9c1.7,0,2.4-0.8,2.4-1.9c0-1.1-0.6-1.7-2.3-2.3c-2.3-0.8-3.3-2.1-3.3-3.6
		c0-2,1.6-3.7,4.3-3.7c1.3,0,2.4,0.4,3.1,0.8l-0.6,1.7c-0.5-0.3-1.4-0.7-2.6-0.7c-1.4,0-2.1,0.8-2.1,1.7c0,1,0.8,1.5,2.4,2.1
		c2.2,0.8,3.3,1.9,3.3,3.8c0,2.2-1.7,3.8-4.7,3.8c-1.4,0-2.7-0.3-3.5-0.9L93.7,40z"/>
	<path id="XMLID_46_" d="M104.3,33.8c0-1.6-0.1-2.9-0.1-4.1h2.1l0.1,2.2h0.1c0.9-1.5,2.4-2.4,4.5-2.4c3,0,5.3,2.6,5.3,6.4
		c0,4.5-2.8,6.8-5.7,6.8c-1.7,0-3.1-0.7-3.9-2h-0.1v6.8h-2.3V33.8z M106.5,37.2c0,0.3,0.1,0.6,0.1,0.9c0.4,1.6,1.8,2.7,3.4,2.7
		c2.4,0,3.8-2,3.8-4.9c0-2.5-1.3-4.7-3.7-4.7c-1.6,0-3,1.1-3.5,2.8c-0.1,0.3-0.2,0.6-0.2,0.9L106.5,37.2L106.5,37.2z"/>
	<path id="XMLID_49_" d="M126,42.3l-0.2-1.6h-0.1c-0.7,1-2.1,1.9-3.8,1.9c-2.5,0-3.8-1.8-3.8-3.6c0-3,2.7-4.7,7.6-4.7V34
		c0-1-0.3-2.9-2.9-2.9c-1.2,0-2.4,0.4-3.3,0.9l-0.5-1.4c1-0.7,2.5-1.1,4.1-1.1c3.8,0,4.8,2.6,4.8,5.1v4.7c0,1.1,0.1,2.2,0.2,3H126z
		 M125.7,35.9c-2.5-0.1-5.3,0.4-5.3,2.8c0,1.5,1,2.2,2.2,2.2c1.6,0,2.7-1,3-2.1c0.1-0.2,0.1-0.5,0.1-0.7
		C125.7,38.1,125.7,35.9,125.7,35.9z"/>
	<path id="XMLID_52_" d="M140.6,41.8c-0.6,0.3-1.9,0.7-3.6,0.7c-3.8,0-6.3-2.6-6.3-6.4c0-3.9,2.7-6.7,6.8-6.7c1.4,0,2.5,0.3,3.2,0.6
		l-0.5,1.8c-0.5-0.3-1.4-0.6-2.7-0.6c-2.9,0-4.4,2.1-4.4,4.8c0,2.9,1.9,4.7,4.4,4.7c1.3,0,2.2-0.3,2.8-0.6L140.6,41.8z"/>
	<path id="XMLID_54_" d="M144.4,36.4c0.1,3.1,2,4.4,4.3,4.4c1.6,0,2.6-0.3,3.5-0.6l0.4,1.6c-0.8,0.4-2.2,0.8-4.2,0.8
		c-3.9,0-6.2-2.5-6.2-6.3s2.2-6.8,5.9-6.8c4.1,0,5.2,3.6,5.2,5.9c0,0.5-0.1,0.8-0.1,1.1h-8.8V36.4z M151.1,34.8
		c0-1.5-0.6-3.7-3.2-3.7c-2.3,0-3.3,2.1-3.5,3.7H151.1z"/>
</g>
<g id="XMLID_19_">
</g>
<g id="XMLID_17_">
</g>
<g id="XMLID_33_">
</g>
<g id="XMLID_58_">
</g>
<g id="XMLID_59_">
</g>
<g id="XMLID_60_">
</g>
<g id="XMLID_61_">
</g>
</svg>
