<?xml version="1.0" encoding="utf-8"?>
<!-- Generator: Adobe Illustrator 19.0.0, SVG Export Plug-In . SVG Version: 6.00 Build 0)  -->
<svg version="1.1" id="Layer_1" xmlns="http://www.w3.org/2000/svg" xmlns:xlink="http://www.w3.org/1999/xlink" x="0px" y="0px"
	 viewBox="0 0 72 72" style="enable-background:new 0 0 72 72;" xml:space="preserve">
<style type="text/css">
	.st0{fill:none;stroke:#000000;stroke-width:3;stroke-miterlimit:10;}
	.st1{fill:none;}
</style>
<path id="XMLID_1_" class="st0" d="M52.8,70.3H19.2c-9.6,0-17.5-7.9-17.5-17.5V19.2c0-9.6,7.9-17.5,17.5-17.5h33.6
	c9.6,0,17.5,7.9,17.5,17.5v33.6C70.3,62.4,62.4,70.3,52.8,70.3z"/>
<g id="XMLID_3_">
	<rect id="XMLID_12_" x="16" y="8.2" class="st1" width="39.9" height="55.6"/>
	<path id="XMLID_6_" d="M41.3,27.4c-0.5-0.5-1-1-1.7-1.8c-1.6,1.5-3.3,2.1-5.3,2.1c-3.5,0-5.6-2.4-5.6-5.1c0-2.5,1.5-4.2,3.6-5.3
		v-0.1c-0.9-1.2-1.5-2.5-1.5-3.8c0-2.2,1.6-4.5,4.6-4.5c2.3,0,4,1.5,4,3.9c0,1.9-1.1,3.4-4,4.9v0.1c1.5,1.8,3.3,3.8,4.4,5.1
		c0.8-1.3,1.4-3,1.8-5.3h2.2c-0.5,2.9-1.3,5.1-2.6,6.7c1,1,1.9,2.1,3,3.2h-2.9V27.4z M38.4,24.2c-1.1-1.2-3.1-3.4-5.1-5.7
		c-1,0.6-2.3,1.8-2.3,3.7c0,2.1,1.5,3.7,3.7,3.7C36.2,25.9,37.5,25.2,38.4,24.2z M32.9,13.1c0,1.3,0.6,2.3,1.4,3.3
		c1.8-1.1,3-2,3-3.6c0-1.1-0.6-2.3-2.1-2.3C33.7,10.5,32.9,11.7,32.9,13.1z"/>
	<path id="XMLID_10_" d="M41.7,42.2v1.6l-7.6,16h-2.5l7.6-15.5v-0.1h-8.6v-2H41.7z"/>
</g>
<g id="XMLID_4_">
</g>
<g id="XMLID_2_">
</g>
<g id="XMLID_5_">
</g>
<g id="XMLID_13_">
</g>
<g id="XMLID_14_">
</g>
<g id="XMLID_15_">
</g>
<g id="XMLID_16_">
</g>
</svg>
